# xmcd CD database file
# Copyright (C) 1997 Ti Kan
# 
# Track frame offsets:
#     150
#     19140
#     22195
#     41208
#     44335
#     65945
#     67513
#     85883
#     88868
#     108838
#     110115
#     133975
#     136183
#     177040
#     179093
#     204813
#     207320
#     223555
# 
# Disc length: 3014 seconds
# 
# Revision: 1
# Processed by: cddbd v1.4b41PL1 Copyright (c) Steve Scherf et al.
# Submitted via: DiscPlay 4.0.3
# 
DISCID=0e0bc412
DTITLE=Madness - Ultimate Bass Trax
DYEAR=1900
DGENRE=
TTITLE0=Mechanized Boom Doom
TTITLE1=Turn Me On
TTITLE2=Encore Bass
TTITLE3=Stand By for Action
TTITLE4=Basswerk
TTITLE5=Mind Body and Soul
TTITLE6=Original Recipe
TTITLE7=There it is, Funky and Down
TTITLE8=Throw it Down (Behind the Bookstore)
TTITLE9=Quatro bass boys shout out
TTITLE10=Bass from the Black Hole
TTITLE11=Yeoooww
TTITLE12=Don't sweat it
TTITLE13=Break it on down
TTITLE14=Rond the way Bass
TTITLE15=Drummers bass beat
TTITLE16=Quiet storm Bass
TTITLE17=Ampit theater bass groove
EXTD=
EXTT0=
EXTT1=
EXTT2=
EXTT3=
EXTT4=
EXTT5=
EXTT6=
EXTT7=
EXTT8=
EXTT9=
EXTT10=
EXTT11=
EXTT12=
EXTT13=
EXTT14=
EXTT15=
EXTT16=
EXTT17=
PLAYORDER=
